<svg width="71" height="32" viewBox="0 0 71 32" fill="none" xmlns="http://www.w3.org/2000/svg">
<path d="M12.113 0.437996C21.1309 -1.67523 28.8508 4.20468 35.1555 10.6466C35.3701 10.8257 35.701 11.3171 35.9568 10.923C40.3748 6.24253 45.8809 -0.877668 55.1466 0.100174C60.6056 0.750323 65.0852 2.8585 67.6239 8.05136C66.9854 7.85172 66.4541 7.42858 65.8067 7.25113C65.7137 7.85516 65.6564 8.46257 65.5777 9.0666C64.3497 7.80655 63.0327 4.28886 56.1214 3.30797C48.3266 2.22088 43.8457 8.25378 38.9151 14.2571C38.8382 14.3816 38.5985 14.5591 38.7899 14.699C42.1435 18.0313 45.3201 21.6366 49.4446 24.1397C59.0169 30.0706 69.1072 21.2358 67.0819 12.9193C66.5078 13.1616 65.9909 13.4994 65.4489 13.7963C65.6135 11.812 65.9354 9.83951 66.0803 7.85341C67.7365 8.70143 69.3642 9.61598 70.956 10.5715C70.4034 10.9673 69.7952 11.2813 69.2104 11.6294C72.8996 24.7025 59.4395 37.0805 44.6494 29.0674C40.6179 26.8663 37.2821 23.7268 33.9464 20.6896L33.8355 20.6726C29.517 25.288 23.9582 32.3608 15.0123 31.5517C-4.42986 29.89 -4.54876 4.05074 12.113 0.437996ZM2.55649 14.8918C1.62763 20.7695 6.12391 26.6191 11.2276 27.8491C19.9609 30.0654 24.3153 25.6851 30.895 17.2737C27.7597 13.2593 21.9985 7.51683 16.9904 5.96799C10.421 4.05325 3.68234 8.67332 2.55649 14.8918Z" fill="black"/>
</svg>
